<svg xmlns="http://www.w3.org/2000/svg" viewBox="0 0 800 560" role="img" aria-labelledby="title desc">
  <title id="title">Rena Bianca</title>
  <desc id="desc">Illustrazione spiaggia Rena Bianca con mare turchese e sabbia chiara.</desc>
  <defs>
    <linearGradient id="sky" x1="0" y1="0" x2="0" y2="1">
      <stop offset="0%" stop-color="#d9effa" />
      <stop offset="100%" stop-color="#c2e6f5" />
    </linearGradient>
    <linearGradient id="sea" x1="0" y1="0" x2="0" y2="1">
      <stop offset="0%" stop-color="#78c5d9" />
      <stop offset="100%" stop-color="#3e95ab" />
    </linearGradient>
  </defs>
  <rect width="800" height="270" fill="url(#sky)" />
  <rect y="270" width="800" height="180" fill="url(#sea)" />
  <path d="M0 420 C110 396 235 468 355 442 C450 421 547 438 657 424 C721 416 764 428 800 420 L800 560 L0 560 Z" fill="#f2dfbc" />
  <path d="M0 448 C120 424 229 482 352 460 C470 438 560 460 687 443 C730 438 770 444 800 440 L800 560 L0 560 Z" fill="#e4cb9f" />
  <circle cx="620" cy="84" r="44" fill="#fff2cc" />
</svg>
